<?xml version="1.0" encoding="UTF-8"?> <svg xmlns="http://www.w3.org/2000/svg" xmlns:xlink="http://www.w3.org/1999/xlink" viewBox="0 0 566.93 213.51"><defs><style>.cls-1{fill:none;}.cls-2{fill:#2a4194;}.cls-3{fill:url(#Dégradé_OK);}.cls-4{fill:url(#Dégradé_OK-2);}.cls-5{fill:url(#Dégradé_OK-3);}.cls-6{fill:url(#Dégradé_OK-4);}.cls-7{fill:url(#Dégradé_OK-5);}.cls-8{fill:url(#Dégradé_OK-6);}.cls-9{fill:url(#Dégradé_OK-7);}.cls-10{fill:url(#Dégradé_OK-8);}.cls-11{fill:url(#Dégradé_OK-9);}</style><linearGradient id="Dégradé_OK" x1="50.66" y1="132.87" x2="238.45" y2="132.87" gradientUnits="userSpaceOnUse"><stop offset="0" stop-color="#57b998"></stop><stop offset="0.17" stop-color="#6ebe85"></stop><stop offset="0.54" stop-color="#abcb54"></stop><stop offset="1" stop-color="#ffde10"></stop></linearGradient><linearGradient id="Dégradé_OK-2" x1="52.36" y1="106.76" x2="228.12" y2="106.76" xlink:href="#Dégradé_OK"></linearGradient><linearGradient id="Dégradé_OK-3" x1="50.66" y1="62.84" x2="238.46" y2="62.84" xlink:href="#Dégradé_OK"></linearGradient><linearGradient id="Dégradé_OK-4" x1="50.66" y1="73.39" x2="238.45" y2="73.39" xlink:href="#Dégradé_OK"></linearGradient><linearGradient id="Dégradé_OK-5" x1="50.66" y1="89.06" x2="238.45" y2="89.06" xlink:href="#Dégradé_OK"></linearGradient><linearGradient id="Dégradé_OK-6" x1="50.66" y1="59.01" x2="238.45" y2="59.01" xlink:href="#Dégradé_OK"></linearGradient><linearGradient id="Dégradé_OK-7" x1="50.66" y1="62.83" x2="238.45" y2="62.83" xlink:href="#Dégradé_OK"></linearGradient><linearGradient id="Dégradé_OK-8" x1="50.66" y1="73.39" x2="238.45" y2="73.39" xlink:href="#Dégradé_OK"></linearGradient><linearGradient id="Dégradé_OK-9" x1="50.66" y1="89.06" x2="238.45" y2="89.06" xlink:href="#Dégradé_OK"></linearGradient></defs><g id="Calque_2" data-name="Calque 2"><g id="Calque_1-2" data-name="Calque 1"><rect class="cls-1" width="566.93" height="213.51"></rect><path class="cls-2" d="M392.09,65.23c-11.57-10.59-26.19-15.87-41.15-14.87a56.82,56.82,0,0,0-38.12,18.69c-21.52,23.52-19.48,58,4.73,80.11a54.12,54.12,0,0,0,36.66,14.11c.33,0,.67,0,1,0h0c14.34,0,27.43-6,37.39-14.8l-12.3-12.31a39.84,39.84,0,0,1-25.09,9.12,43.68,43.68,0,0,1-17.13-3.38,38.15,38.15,0,0,1-10.06-6.63,37.15,37.15,0,0,1-10.26-15.89H409.2l.45-2.43A55.9,55.9,0,0,0,392.09,65.23Zm-75.82,37A38.07,38.07,0,0,1,326,81.64a40.12,40.12,0,0,1,27-13.27,36.6,36.6,0,0,1,27.41,9.68,36,36,0,0,1,11.7,24.21Z"></path><path class="cls-2" d="M498.05,162.15V110.79c0-12.34-.89-20.87-2.74-26.07a27.06,27.06,0,0,0-9.91-13.45,28.06,28.06,0,0,0-16.57-4.87,28.86,28.86,0,0,0-16.59,4.75,27.79,27.79,0,0,0-10.32,13.79c-1,2.74-2.3,8.27-2.3,24.84v52.37h-18.3V117.9c0-25.52,2.49-36.68,4.57-41.54,3.67-8.53,8.87-14.87,15.91-19.37s16.18-6.74,27.32-6.74c12.06,0,21.81,2.63,29,7.84s12.25,12.44,15.25,22c1.53,4.71,3.32,15.21,3.32,38.74v43.35Z"></path><path class="cls-2" d="M301.14,67c-6.39,0-12.78.79-19,4.48C277.24,74.3,274,79,271.78,84.94c-1,2.74-2.3,8.27-2.3,24.84v52.37h-18.3V113.08c0-25.51,2.49-31.86,4.57-36.72,3.67-8.53,8.87-14.87,15.91-19.37s18.63-6.74,29.77-6.74Z"></path><path class="cls-3" d="M239.19,102.48H222a37.2,37.2,0,0,1,.22,4.11,39.29,39.29,0,1,1-78.58.08,38.8,38.8,0,0,1,.22-4.19H126.69c-.11,1.44-.19,2.88-.19,4.35a56.44,56.44,0,1,0,112.88,0C239.38,105.36,239.3,103.92,239.19,102.48Z"></path><path class="cls-4" d="M84.06,163.27c-14,0-25.24-4.81-34.1-14.68L61.3,136.24A47,47,0,0,0,70.87,143c5.46,2.91,10.31,4.33,14.81,4.33,5.06,0,9.31-1.32,12.61-3.92,4.58-3.61,5.54-7.74,5.54-10.56,0-6.73-5.13-12.59-15.7-17.92l-9.94-5C61,101.3,52.58,91.07,52.58,78.7c0-7.82,3-14.35,9.06-20s14-8.49,23.93-8.49a42.73,42.73,0,0,1,19.21,4.47,42.06,42.06,0,0,1,12.4,9.4L105.82,75.48c-7-6-13.63-9-20-9-4.45,0-8.11,1.05-10.89,3.14A11.46,11.46,0,0,0,70,79a11.69,11.69,0,0,0,3.1,7.84c1.14,1.27,3.35,3.19,10.38,6.65L94.25,98.9c10.57,5.22,17.81,10.45,21.53,15.56a28.51,28.51,0,0,1,5.37,17.44,28.61,28.61,0,0,1-9.79,22.26C104.63,160.29,95.7,163.27,84.06,163.27Z"></path><path class="cls-5" d="M172.31,68.93l-6.62-16a56.1,56.1,0,0,0-9,3.79l6.64,16A39.15,39.15,0,0,1,172.31,68.93Z"></path><path class="cls-6" d="M158.49,76,146.27,63.78a55.92,55.92,0,0,0-6.88,7L151.64,83A39.09,39.09,0,0,1,158.49,76Z"></path><path class="cls-7" d="M148.51,87.82l-16-6.62a56.13,56.13,0,0,0-3.66,9.08l16,6.64A38.72,38.72,0,0,1,148.51,87.82Z"></path><path class="cls-8" d="M187.83,67.78V50.47c-1.61-.14-3.24-.22-4.89-.22s-3.28.08-4.9.22v17.3A39.12,39.12,0,0,1,187.83,67.78Z"></path><path class="cls-9" d="M202.59,72.73l6.63-16a56.1,56.1,0,0,0-9-3.79l-6.63,16A39.08,39.08,0,0,1,202.59,72.73Z"></path><path class="cls-10" d="M214.23,83l12.26-12.25a55.92,55.92,0,0,0-6.88-7L207.39,76A39.4,39.4,0,0,1,214.23,83Z"></path><path class="cls-11" d="M221,96.91l16-6.63a56.13,56.13,0,0,0-3.66-9.08l-16,6.62A39.15,39.15,0,0,1,221,96.91Z"></path></g></g></svg> 